<?xml version="1.0" encoding="UTF-8" standalone="no"?>
<!DOCTYPE svg PUBLIC "-//W3C//DTD SVG 1.1//EN" "http://www.w3.org/Graphics/SVG/1.1/DTD/svg11.dtd">
<svg width="100%" height="100%" viewBox="0 0 24 24" version="1.1" xmlns="http://www.w3.org/2000/svg" xmlns:xlink="http://www.w3.org/1999/xlink" xml:space="preserve" xmlns:serif="http://www.serif.com/" style="fill-rule:evenodd;clip-rule:evenodd;stroke-linejoin:round;stroke-miterlimit:2;">
    <g id="Shape">
        <g id="headphones" transform="matrix(0.92,0,0,0.92,0.96,0.96)">
            <path d="M12,1C7.03,1 3,5.03 3,10L3,17C3,18.66 4.34,20 6,20L9,20L9,12L5,12L5,10C5,6.13 8.13,3 12,3C15.87,3 19,6.13 19,10L19,12L15,12L15,20L18,20C19.66,20 21,18.66 21,17L21,10C21,5.03 16.97,1 12,1Z" style="fill:white;fill-rule:nonzero;"/>
        </g>
        <g id="number">
            <path id="number-plate" serif:id="number plate" d="M11.891,4.744C13.91,4.744 15.55,6.383 15.55,8.402C15.55,10.422 13.91,12.061 11.891,12.061C9.872,12.061 8.232,10.422 8.232,8.402C8.232,6.383 9.872,4.744 11.891,4.744ZM13.145,7.018L13.145,6.248L10.968,6.248L10.546,8.483L11.214,8.58C11.402,8.371 11.614,8.266 11.85,8.266C12.039,8.266 12.193,8.332 12.311,8.464C12.429,8.596 12.489,8.793 12.489,9.057C12.489,9.338 12.429,9.549 12.31,9.688C12.191,9.828 12.045,9.898 11.873,9.898C11.723,9.898 11.59,9.844 11.475,9.735C11.36,9.627 11.29,9.48 11.267,9.294L10.447,9.379C10.495,9.739 10.645,10.025 10.895,10.238C11.145,10.451 11.468,10.557 11.864,10.557C12.361,10.557 12.748,10.368 13.028,9.989C13.233,9.711 13.335,9.396 13.335,9.042C13.335,8.619 13.208,8.274 12.954,8.008C12.7,7.743 12.391,7.61 12.026,7.61C11.834,7.61 11.647,7.656 11.463,7.748L11.592,7.018L13.145,7.018Z" style="fill:white;"/>
        </g>
    </g>
</svg>
