<?xml version="1.0" encoding="UTF-8" standalone="no"?>
<!DOCTYPE svg PUBLIC "-//W3C//DTD SVG 1.1//EN" "http://www.w3.org/Graphics/SVG/1.1/DTD/svg11.dtd">
<svg width="100%" height="100%" viewBox="0 0 24 24" version="1.1" xmlns="http://www.w3.org/2000/svg" xmlns:xlink="http://www.w3.org/1999/xlink" xml:space="preserve" xmlns:serif="http://www.serif.com/" style="fill-rule:evenodd;clip-rule:evenodd;stroke-linejoin:round;stroke-miterlimit:2;">
    <path fill-rule="evenodd" id="headphones" d="M18.44,12L18.44,10.16C18.44,6.6 15.56,3.72 12,3.72C8.44,3.72 5.56,6.6 5.56,10.16L5.56,12L9.24,12L9.24,19.36L6.48,19.36C4.953,19.36 3.72,18.127 3.72,16.6L3.72,10.16C3.72,5.588 7.428,1.88 12,1.88C16.572,1.88 20.28,5.588 20.28,10.16L20.28,16.6C20.28,18.127 19.047,19.36 17.52,19.36L14.76,19.36L14.76,12L18.44,12ZM11.891,4.744C13.91,4.744 15.55,6.383 15.55,8.402C15.55,10.422 13.91,12.061 11.891,12.061C9.872,12.061 8.232,10.422 8.232,8.402C8.232,6.383 9.872,4.744 11.891,4.744ZM13.448,6.209C13.864,6.209 14.189,6.358 14.424,6.655C14.703,7.006 14.843,7.589 14.843,8.404C14.843,9.216 14.702,9.8 14.421,10.156C14.188,10.449 13.864,10.595 13.448,10.595C13.03,10.595 12.693,10.435 12.437,10.113C12.181,9.792 12.053,9.219 12.053,8.395C12.053,7.586 12.194,7.004 12.475,6.649C12.708,6.356 13.032,6.209 13.448,6.209ZM10.826,6.209L10.158,6.209C10.064,6.471 9.891,6.7 9.639,6.896C9.387,7.093 9.154,7.226 8.939,7.296L8.939,8.043C9.347,7.909 9.702,7.701 10.003,7.419L10.003,10.522L10.826,10.522L10.826,6.209ZM13.448,6.892C13.348,6.892 13.26,6.924 13.181,6.987C13.103,7.051 13.043,7.165 13,7.329C12.943,7.542 12.915,7.9 12.915,8.404C12.915,8.908 12.94,9.254 12.991,9.442C13.042,9.631 13.106,9.756 13.183,9.819C13.26,9.881 13.348,9.913 13.448,9.913C13.548,9.913 13.636,9.881 13.715,9.817C13.793,9.754 13.853,9.64 13.896,9.476C13.953,9.265 13.981,8.908 13.981,8.404C13.981,7.9 13.956,7.554 13.905,7.365C13.854,7.177 13.79,7.051 13.713,6.987C13.636,6.924 13.548,6.892 13.448,6.892Z" style="fill:white;"/>
</svg>
